<?xml version="1.0" standalone="no"?>
<!DOCTYPE svg PUBLIC "-//W3C//DTD SVG 20010904//EN"
 "http://www.w3.org/TR/2001/REC-SVG-20010904/DTD/svg10.dtd">
<svg version="1.0" xmlns="http://www.w3.org/2000/svg"
 width="460.000000pt" height="460.000000pt" viewBox="0 0 460.000000 460.000000"
 preserveAspectRatio="xMidYMid meet">
<metadata>
Created by potrace 1.11, written by Peter Selinger 2001-2013
</metadata>
<g transform="translate(0.000000,460.000000) scale(0.100000,-0.100000)"
fill="#000000" stroke="none">
<path d="M1660 4345 c-36 -8 -74 -19 -85 -24 -144 -63 -194 -108 -220 -197
-19 -66 -57 -104 -129 -132 -100 -38 -220 -126 -271 -197 -53 -74 -105 -209
-105 -272 0 -48 -19 -73 -77 -105 -65 -34 -82 -104 -48 -198 20 -56 10 -84
-53 -155 -98 -109 -116 -216 -61 -346 18 -41 31 -85 30 -99 0 -14 -4 -52 -7
-86 -5 -49 -1 -75 20 -138 14 -42 26 -83 26 -91 0 -9 -13 -42 -30 -75 -39 -77
-40 -145 -3 -266 23 -76 27 -108 27 -224 1 -79 6 -143 13 -155 6 -11 19 -39
29 -63 16 -39 92 -122 112 -122 16 0 51 -36 62 -64 5 -15 10 -59 10 -97 0 -57
6 -82 31 -136 34 -73 32 -71 88 -134 54 -60 61 -84 61 -192 0 -80 3 -99 26
-142 48 -92 129 -146 279 -185 107 -28 188 -67 276 -133 139 -103 245 -135
391 -116 134 18 194 66 222 179 8 33 10 536 6 1823 l-5 1779 -28 21 c-79 62
-87 72 -103 137 -27 109 -78 158 -204 200 -57 18 -207 21 -280 5z m278 -94 c8
-5 12 -17 10 -27 -4 -20 -33 -23 -105 -9 -33 6 -34 7 -16 20 10 7 35 15 54 18
19 2 36 4 39 5 3 1 11 -2 18 -7z m-265 -30 c-43 -4 -68 -12 -85 -27 -13 -12
-37 -28 -53 -37 -57 -29 -68 -50 -73 -144 l-5 -86 39 23 c76 46 82 51 106 85
26 39 73 64 89 48 23 -23 2 -49 -76 -91 -155 -84 -155 -85 -155 -146 0 -50 -3
-56 -32 -77 -48 -34 -57 -49 -58 -96 0 -54 -3 -56 -167 -164 l-93 -60 0 -63 0
-62 53 -45 c54 -47 197 -156 227 -174 9 -5 40 -30 69 -54 l52 -44 -3 -175 -3
-175 -34 -26 c-96 -74 -92 -67 -92 -166 0 -49 3 -114 7 -144 6 -55 -4 -75 -32
-64 -10 4 -12 39 -8 155 l4 151 43 38 c23 22 46 39 50 39 23 0 35 72 36 217
l1 152 -30 23 c-16 13 -65 52 -107 86 -43 35 -94 72 -114 82 -20 11 -61 43
-92 72 -56 53 -57 55 -57 110 0 80 4 84 190 203 41 26 77 50 80 52 2 2 3 25 2
51 -2 44 2 50 43 91 l45 44 0 142 0 141 28 25 c25 24 39 34 111 81 19 13 44
17 91 16 l65 -1 -62 -6z m387 -36 c0 -18 -25 -36 -120 -89 -78 -43 -269 -168
-330 -215 -24 -19 -25 -22 -28 -178 -4 -147 -2 -160 17 -184 19 -25 161 -124
229 -161 34 -18 42 -47 19 -67 -11 -8 -26 3 -71 53 -32 35 -74 73 -94 84 -21
11 -56 38 -80 60 l-43 39 -2 168 -2 167 25 20 c24 19 134 97 180 128 12 8 32
23 44 32 11 10 53 38 91 63 39 26 79 57 91 69 32 36 74 42 74 11z m-249 -7
c46 -56 0 -119 -53 -71 -22 20 -23 42 -2 71 19 28 31 28 55 0z m289 -217 c39
-38 84 -74 100 -81 22 -9 30 -20 34 -48 6 -42 5 -244 -1 -238 -6 5 -112 -94
-124 -115 -7 -14 0 -23 36 -46 25 -15 47 -34 50 -41 2 -7 5 -357 5 -779 l1
-766 -32 -33 c-18 -19 -38 -34 -43 -34 -14 0 -63 -42 -157 -135 -78 -77 -84
-81 -108 -66 -24 15 11 56 74 86 31 15 70 41 88 58 18 16 56 48 85 70 29 22
57 48 63 58 6 11 9 306 7 774 l-1 756 -51 43 c-28 24 -72 57 -99 75 -26 18
-55 40 -65 50 -20 21 -156 111 -167 111 -19 0 -74 51 -69 64 12 32 36 25 82
-25 41 -45 180 -156 252 -202 25 -16 26 -15 88 46 57 57 63 67 69 115 3 30 2
52 -4 52 -5 0 -36 17 -69 38 -32 21 -75 47 -94 58 -71 39 -83 56 -51 74 16 8
29 0 85 -54 36 -35 79 -71 96 -79 l30 -15 0 56 c-1 54 -16 92 -37 92 -5 0 -18
9 -27 19 -10 11 -38 28 -64 40 -66 29 -96 55 -89 75 11 29 34 17 107 -53z
m-182 37 c21 -21 -7 -46 -119 -104 -131 -69 -149 -87 -149 -158 0 -63 13 -83
90 -137 33 -23 60 -45 60 -49 0 -4 10 -12 23 -18 12 -7 42 -28 67 -47 25 -19
65 -45 90 -58 25 -12 60 -32 77 -45 28 -20 31 -27 23 -43 -6 -10 -16 -19 -23
-19 -7 0 -41 30 -77 66 -36 37 -90 83 -120 104 -30 21 -73 54 -95 74 -22 20
-44 36 -50 36 -5 0 -27 16 -47 36 -37 34 -38 38 -38 104 0 79 -1 78 100 140
41 25 92 64 114 88 42 44 55 49 74 30z m-605 -112 c8 -21 -11 -39 -78 -76 -33
-19 -95 -58 -138 -87 -43 -29 -75 -48 -72 -43 13 21 -6 9 -33 -21 l-27 -31 -3
-259 c-3 -250 -2 -261 18 -289 12 -17 28 -30 36 -30 8 0 14 -4 14 -10 0 -5 14
-17 30 -25 17 -9 28 -20 25 -25 -3 -5 -15 0 -25 10 -11 11 -25 20 -31 20 -7 0
-22 11 -34 24 -12 13 -28 25 -36 28 -12 4 -15 52 -17 282 l-3 277 42 40 c23
21 45 36 50 33 5 -3 9 -2 9 3 0 4 21 21 48 38 26 16 49 32 52 35 3 3 19 14 35
24 17 11 45 36 63 58 34 39 66 49 75 24z m612 -75 c3 -11 3 -31 -1 -45 -11
-44 -84 -31 -84 15 0 43 72 68 85 30z m-614 -67 c11 -14 10 -19 -11 -37 -14
-11 -47 -31 -75 -44 -65 -31 -112 -59 -152 -89 l-33 -25 0 -195 0 -195 33 -30
c110 -103 111 -104 216 -105 53 -1 101 2 106 6 7 6 8 -44 5 -145 -6 -173 4
-152 -100 -222 -30 -21 -61 -38 -68 -39 -7 -2 -20 -8 -28 -15 -20 -17 -61 -74
-46 -65 9 5 12 -48 12 -227 l0 -234 27 -27 c29 -30 59 -40 118 -40 57 -1 63 2
134 72 77 74 103 79 31 5 -85 -88 -94 -93 -173 -93 -61 0 -75 4 -106 27 -62
47 -60 38 -61 298 l0 241 45 44 c24 24 47 41 50 38 4 -3 17 4 29 16 13 11 42
34 65 50 49 36 54 54 48 191 l-4 100 -91 1 c-76 1 -95 5 -121 23 -17 13 -31
27 -31 32 0 5 -6 8 -12 7 -7 -2 -12 3 -10 10 1 8 -2 10 -8 7 -6 -4 -29 11 -51
34 l-41 41 4 196 3 195 35 30 c19 16 58 43 85 61 28 18 70 52 94 75 48 47 62
51 82 27z m191 5 c18 -10 20 -17 13 -72 -13 -119 -15 -232 -5 -257 6 -14 25
-35 43 -47 18 -13 42 -31 53 -40 41 -38 131 -103 142 -103 5 0 12 -6 14 -12 3
-9 36 -15 94 -19 l89 -6 -95 -1 -95 -2 -70 56 c-87 69 -108 85 -136 104 -74
50 -73 47 -74 171 0 63 -4 135 -9 161 -8 44 -4 78 9 78 4 0 16 -5 27 -11z
m515 -7 c6 -4 14 -19 18 -33 12 -49 -52 -67 -81 -24 -25 38 24 82 63 57z m103
-82 c24 -18 24 -21 10 -47 -19 -34 -45 -40 -71 -17 -22 20 -22 24 -9 58 11 31
36 33 70 6z m-800 -208 c0 -9 74 -84 139 -142 42 -37 34 -39 -20 -5 -23 15
-37 30 -33 37 4 6 3 8 -3 5 -11 -7 -64 18 -108 50 -25 18 -26 22 -14 41 14 22
39 30 39 14z m-104 -36 c19 -20 18 -39 -5 -67 -16 -19 -23 -22 -37 -13 -33 20
-39 40 -21 68 19 29 41 33 63 12z m-343 -71 c-2 -22 -6 -111 -10 -198 -7 -132
-11 -161 -25 -170 -9 -7 -42 -29 -72 -50 -64 -43 -71 -62 -61 -144 5 -45 13
-63 37 -85 29 -27 30 -29 29 -123 -1 -53 4 -117 10 -143 19 -78 18 -92 0 -102
-32 -17 -55 10 -47 56 4 21 10 91 13 154 l5 116 -35 37 c-28 32 -35 48 -41 99
-7 75 4 101 64 144 104 74 100 66 99 211 0 70 -4 151 -8 178 -10 58 -7 67 22
63 19 -3 22 -9 20 -43z m515 -80 c29 -30 49 -55 44 -55 -13 0 -121 60 -128 71
-6 10 13 39 25 39 4 0 30 -25 59 -55z m132 5 c0 -5 -4 -10 -10 -10 -5 0 -10 5
-10 10 0 6 5 10 10 10 6 0 10 -4 10 -10z m75 -65 c25 -22 23 -22 -17 5 -27 17
-48 33 -48 36 0 8 33 -13 65 -41z m528 -8 c3 -8 6 -85 7 -173 2 -187 2 -178 1
-683 l-1 -393 -37 -35 c-21 -19 -65 -52 -98 -74 -33 -21 -64 -42 -70 -46 -16
-13 -116 -86 -141 -103 -12 -8 -61 -41 -108 -73 -118 -79 -126 -88 -126 -144
0 -41 4 -51 36 -80 21 -18 33 -37 29 -41 -4 -4 -10 -1 -12 6 -3 6 -10 12 -17
12 -7 0 -23 9 -36 20 -17 15 -23 33 -27 85 -4 43 -2 65 5 65 6 0 17 6 24 13
47 43 100 77 111 71 6 -4 9 -4 5 1 -8 9 60 64 79 65 7 0 16 6 20 13 4 7 29 26
54 43 111 70 265 187 272 207 5 12 7 295 5 629 l-3 608 -65 2 -65 1 55 7 c89
11 98 11 103 -3z m-927 -11 c20 -21 17 -63 -6 -86 -19 -19 -22 -19 -45 -4 -31
20 -33 56 -5 84 24 24 36 25 56 6z m569 -101 c6 -6 43 -33 84 -59 68 -44 77
-47 130 -44 63 3 62 1 46 116 -9 60 3 79 38 61 16 -9 17 -18 11 -65 -3 -30 -7
-68 -8 -85 -2 -40 -19 -49 -94 -49 -71 0 -89 7 -149 59 -22 20 -62 52 -88 71
-88 65 -116 95 -45 49 36 -23 70 -47 75 -54z m-173 19 c16 -8 26 -19 22 -25
-4 -7 -12 -5 -23 5 -10 9 -19 16 -22 16 -4 0 -5 -155 -1 -217 2 -26 14 -41 69
-85 37 -29 85 -65 107 -80 21 -15 61 -47 87 -73 55 -53 65 -90 57 -207 l-5
-70 -66 -66 -66 -66 -127 0 c-69 -1 -131 2 -136 5 -6 4 -12 45 -13 90 -1 46
-5 114 -10 150 -8 72 -2 86 36 74 20 -7 21 -11 14 -74 -5 -36 -9 -101 -9 -143
l-1 -78 55 -1 c136 -3 163 1 212 38 82 60 88 72 88 184 l0 99 -46 45 c-25 25
-42 50 -39 55 3 6 1 11 -4 11 -20 3 -26 5 -61 23 -19 10 -55 38 -80 62 -25 23
-56 52 -70 63 -22 16 -26 29 -30 93 -3 40 -1 99 3 131 8 54 7 61 -15 85 l-23
26 34 -27 c18 -15 47 -35 63 -43z m375 24 c27 -25 29 -50 7 -72 -23 -23 -51
-20 -69 8 -14 20 -14 29 -4 48 11 21 28 37 38 38 3 0 15 -10 28 -22z m-297
-101 c0 -6 3 -7 6 -4 9 9 62 -23 69 -41 4 -12 1 -11 -17 2 -13 9 -32 20 -43
25 -12 5 -27 16 -34 25 -12 14 -12 16 3 10 9 -3 16 -11 16 -17z m-495 -92 l30
-14 -30 0 c-16 -1 -37 4 -45 9 -8 5 -11 10 -6 10 5 0 1 10 -10 22 l-19 22 25
-17 c14 -10 39 -24 55 -32z m625 4 c3 -3 21 -15 40 -27 19 -12 47 -32 62 -45
15 -13 61 -41 103 -63 76 -39 87 -56 53 -78 -15 -9 -26 -3 -65 36 -27 26 -72
65 -100 88 -29 22 -53 44 -53 49 0 5 -12 14 -28 20 -15 6 -34 22 -41 34 -14
21 -13 21 5 7 10 -8 21 -17 24 -21z m-104 -10 c15 -30 15 -33 -4 -51 -42 -43
-100 15 -59 60 28 30 43 28 63 -9z m-372 -5 c11 -29 6 -150 -6 -165 -15 -17
-117 -86 -158 -105 -39 -19 -44 -44 -45 -216 -1 -110 -5 -172 -12 -179 -19
-19 -25 42 -21 209 l3 152 30 28 c42 39 132 101 161 112 22 9 24 14 24 85 l0
75 -37 0 c-28 0 -34 3 -23 10 24 16 77 12 84 -6z m-398 -29 c4 -9 1 -37 -6
-63 -8 -30 -11 -124 -10 -266 1 -246 1 -244 -74 -292 -25 -16 -50 -39 -55 -52
-11 -24 -15 -102 -5 -102 12 0 132 87 177 128 l47 45 0 150 c0 83 -5 177 -12
210 -11 54 -11 60 6 72 40 30 43 15 39 -218 l-4 -222 -42 -39 c-23 -21 -81
-68 -129 -103 l-88 -65 0 -104 c0 -57 3 -104 8 -105 92 -7 139 -28 220 -97 11
-9 30 -24 42 -32 12 -8 28 -20 34 -25 6 -6 37 -28 70 -50 32 -22 75 -55 94
-72 l36 -33 -2 -131 c-1 -72 3 -139 8 -150 6 -10 30 -32 55 -50 25 -18 43 -34
41 -37 -7 -6 -65 36 -99 71 l-28 28 2 135 2 135 -134 100 c-74 54 -147 110
-163 124 -16 14 -32 25 -36 25 -4 0 -15 9 -25 20 -14 15 -30 20 -70 19 -29 -1
-58 2 -64 5 -7 5 -11 66 -10 189 l0 182 66 60 65 61 0 222 c0 136 -5 235 -11
255 -15 44 0 87 29 87 11 0 23 -7 26 -15z m874 -67 c0 -23 -36 -41 -66 -34
-35 9 -42 51 -13 82 l23 24 28 -27 c15 -15 28 -35 28 -45z m-673 40 c29 -27
29 -42 1 -68 -27 -25 -33 -25 -59 1 -22 22 -19 55 9 77 21 16 22 16 49 -10z
m114 0 c24 -26 23 -37 0 -67 -18 -24 -20 -24 -45 -8 -18 12 -26 26 -26 45 0
52 39 68 71 30z m-401 -55 c0 -22 -38 -53 -57 -46 -48 17 -55 44 -22 79 l21
23 29 -21 c16 -12 29 -28 29 -35z m1022 -10 c33 -29 17 -83 -24 -83 -10 0 -25
11 -34 25 -15 23 -15 27 0 50 19 29 33 31 58 8z m-179 -315 c2 -192 0 -213
-15 -216 -28 -5 -41 33 -29 89 14 63 14 190 1 260 -10 50 -9 55 11 72 12 10
24 15 26 13 3 -3 6 -100 6 -218z m307 162 c7 -14 7 -39 0 -82 -5 -35 -10 -164
-10 -288 l0 -225 -70 -50 c-39 -27 -93 -67 -119 -87 -27 -21 -56 -38 -64 -38
-8 0 -17 -4 -19 -8 -1 -5 -30 -28 -63 -53 -33 -24 -62 -46 -65 -49 -21 -21
-151 -120 -158 -120 -5 0 -17 -9 -26 -19 -16 -17 -17 -38 -14 -180 1 -89 2
-161 1 -161 -1 0 -9 7 -17 16 -13 13 -16 42 -16 164 l0 148 64 51 c35 28 72
51 82 51 9 0 15 3 11 6 -6 6 87 85 98 84 3 0 16 10 29 22 44 44 75 67 115 87
22 12 51 32 66 45 14 13 51 41 81 62 30 20 55 42 55 48 4 35 -2 462 -7 515 -5
48 -3 65 7 72 21 13 27 11 39 -11z m-943 -57 c-3 -10 -5 -4 -5 12 0 17 2 24 5
18 2 -7 2 -21 0 -30z m757 -13 c8 -48 -11 -75 -47 -66 -38 9 -48 53 -17 78 12
10 29 18 37 18 8 0 11 5 7 13 -5 8 -4 9 3 2 6 -5 13 -26 17 -45z m-541 -75
c-1 -22 -5 -90 -9 -150 l-6 -111 53 -41 c44 -34 64 -42 106 -45 77 -6 77 -18
-1 -18 -58 0 -70 3 -92 25 -14 14 -27 25 -29 25 -2 0 -16 11 -31 25 -25 23
-27 31 -35 162 -4 76 -8 146 -9 156 0 14 6 18 28 15 25 -3 27 -6 25 -43z
m-216 -67 c-2 -13 -4 -3 -4 22 0 25 2 35 4 23 2 -13 2 -33 0 -45z m728 56 c8
-4 23 -20 31 -37 15 -28 15 -31 -4 -50 -24 -24 -61 -18 -80 13 -11 18 -10 25
8 50 24 33 22 32 45 24z m162 -81 c-2 -16 -4 -5 -4 22 0 28 2 40 4 28 2 -13 2
-35 0 -50z m-890 -70 c-3 -10 -5 -2 -5 17 0 19 2 27 5 18 2 -10 2 -26 0 -35z
m63 -113 c0 -5 -4 -10 -8 -10 -5 0 -23 -12 -40 -26 -32 -27 -32 -28 -32 -114
l0 -87 47 -44 c27 -24 47 -47 45 -51 -1 -5 1 -7 6 -6 10 2 72 -36 72 -45 0 -5
4 -6 9 -3 4 3 16 -3 26 -14 32 -35 85 -27 147 24 30 24 67 60 82 81 41 53 96
68 96 26 0 -23 -34 -53 -90 -81 -25 -12 -56 -32 -69 -44 -13 -11 -21 -14 -16
-6 4 8 -6 -1 -22 -20 -28 -32 -32 -34 -55 -21 -14 7 -34 12 -44 11 -41 -5 -59
7 -192 128 l-74 67 4 80 c3 86 18 117 68 149 29 18 40 20 40 6z m795 -86 c0
-12 -8 -20 -24 -22 -26 -4 -111 17 -111 27 0 3 21 13 48 22 53 18 87 8 87 -27z
m-232 -1 c-7 -2 -21 -2 -30 0 -10 3 -4 5 12 5 17 0 24 -2 18 -5z m84 1 c-3 -3
-12 -4 -19 -1 -8 3 -5 6 6 6 11 1 17 -2 13 -5z m-118 -48 c17 -20 10 -67 -11
-80 -38 -23 -78 35 -52 73 17 24 46 27 63 7z m131 -7 c16 -29 -5 -79 -33 -79
-23 0 -57 27 -57 44 0 6 7 22 16 34 19 28 60 29 74 1z m-829 -126 c56 -55 61
-67 22 -52 -66 25 -113 54 -113 69 0 45 32 39 91 -17z m773 11 c3 -9 6 -21 6
-28 0 -12 -62 -56 -120 -86 -13 -7 -30 -19 -37 -26 -35 -34 -133 -84 -164 -83
-20 1 -26 3 -14 6 35 7 75 25 75 33 0 4 30 28 68 53 37 25 87 68 110 96 45 53
65 62 76 35z m-384 -38 c16 -30 10 -55 -16 -72 -18 -13 -24 -12 -47 7 -34 26
-34 52 -1 78 29 23 46 20 64 -13z m581 -49 c-4 -12 -34 -35 -67 -52 -74 -38
-194 -116 -213 -138 -7 -9 -18 -17 -23 -17 -5 0 -35 -20 -66 -45 -109 -87
-102 -77 -102 -148 0 -109 6 -123 71 -169 33 -22 59 -43 59 -45 0 -7 -94 51
-121 75 -24 21 -27 32 -33 119 -8 107 -15 92 78 156 41 28 55 37 113 79 18 13
54 38 80 57 26 19 83 65 126 103 62 54 82 67 92 58 9 -8 11 -19 6 -33z m-811
-63 c0 -2 -9 0 -20 6 -11 6 -20 13 -20 16 0 2 9 0 20 -6 11 -6 20 -13 20 -16z
m-277 -64 c-1 -25 -5 -82 -9 -128 l-6 -83 45 -42 c24 -23 74 -66 111 -95 l66
-53 0 -84 c0 -82 1 -85 25 -91 14 -3 54 -4 88 -2 76 6 114 -12 247 -119 5 -4
21 -173 24 -248 1 -36 -1 -40 -24 -40 -28 0 -28 -1 -14 174 l7 94 -39 34 c-21
19 -58 48 -82 64 -40 29 -46 30 -143 28 -77 -1 -103 2 -110 12 -5 8 -9 51 -9
95 l0 82 -38 33 c-21 19 -66 53 -99 77 -34 24 -66 56 -71 70 -11 29 -23 239
-15 260 3 7 15 12 27 10 18 -3 21 -9 19 -48z m373 -7 c-6 -7 -45 11 -40 18 3
5 0 9 -5 9 -6 0 -11 5 -11 11 0 6 13 0 29 -13 15 -13 28 -24 27 -25z m143 1
c2 -2 -26 -4 -62 -4 -37 0 -67 4 -67 9 0 8 119 3 129 -5z m848 -46 c9 -11 21
-120 26 -228 2 -31 -1 -35 -23 -35 -21 0 -25 5 -28 35 -2 19 1 52 8 72 6 22 8
59 4 87 l-6 49 -35 -15 c-34 -14 -76 -52 -139 -126 -33 -40 -74 -50 -74 -19 0
26 11 37 65 66 28 15 77 49 110 76 62 52 76 58 92 38z m-1197 -76 c26 -26 70
-63 98 -82 l50 -35 6 -80 c3 -44 8 -98 12 -121 4 -30 2 -43 -11 -54 -14 -11
-18 -11 -32 3 -14 14 -15 25 -5 86 14 79 15 141 4 156 -9 13 -101 72 -164 105
-58 30 -65 65 -14 69 4 1 30 -21 56 -47z m811 -102 c27 -27 73 -65 103 -85 30
-20 59 -41 64 -48 6 -7 12 -74 14 -149 1 -75 5 -138 8 -141 3 -3 46 -7 97 -9
l92 -4 -5 60 c-3 34 -10 86 -14 116 -9 61 1 83 34 78 24 -3 23 -3 11 -170 l-8
-96 -106 -4 c-58 -2 -112 -2 -118 0 -20 6 -26 64 -21 193 2 65 1 119 -4 119
-4 0 -22 13 -40 29 -18 16 -49 36 -68 45 -56 25 -114 63 -118 75 -6 17 6 41
19 41 6 0 34 -22 60 -50z m-135 -92 c28 -24 79 -63 113 -88 116 -83 105 -58
103 -221 -1 -79 1 -149 6 -156 5 -8 42 -13 97 -16 l90 -3 -107 -2 c-81 -1
-108 1 -109 11 0 6 0 77 1 157 l0 145 -39 28 c-21 15 -42 27 -46 27 -3 0 -18
11 -33 25 -14 13 -54 38 -88 54 -66 32 -79 44 -70 66 9 24 29 17 82 -27z m446
-105 c24 -22 23 -49 -4 -67 -31 -22 -45 -20 -64 9 -15 23 -15 27 0 50 19 29
42 32 68 8z m-416 -24 c29 -32 29 -32 2 -15 -14 10 -29 24 -32 32 -8 20 -3 18
30 -17z m-212 -88 c-5 -5 -63 43 -63 52 -1 5 14 -4 32 -20 19 -15 33 -30 31
-32z m154 7 c23 -13 39 -27 36 -30 -8 -9 -94 51 -94 65 0 8 3 9 8 1 4 -6 26
-22 50 -36z m182 -164 l0 -152 38 -30 c154 -125 247 -191 312 -219 53 -23 73
-44 64 -67 -8 -21 -38 -21 -55 1 -8 9 -45 43 -84 75 -142 118 -180 148 -227
177 -73 44 -78 57 -78 211 0 103 -4 147 -16 176 l-16 39 31 -29 31 -30 0 -152z
m327 164 c-3 -8 -6 -5 -6 6 -1 11 2 17 5 13 3 -3 4 -12 1 -19z m-17 -46 c0
-22 -30 -52 -50 -52 -23 0 -53 46 -45 69 3 10 15 23 28 28 18 9 26 7 45 -10
12 -11 22 -27 22 -35z m-420 -2 c13 -8 14 -36 12 -170 -2 -104 1 -160 7 -160
6 0 32 -19 59 -42 28 -24 78 -64 113 -91 149 -110 210 -159 205 -164 -2 -3
-11 0 -18 6 -29 25 -124 98 -145 111 -12 8 -64 48 -116 88 -52 39 -97 72 -100
72 -4 0 -4 -13 -1 -29 3 -16 2 -31 -4 -35 -17 -10 11 -80 43 -109 67 -59 214
-159 252 -171 12 -4 33 -16 47 -27 21 -17 24 -24 16 -40 -13 -23 -33 -24 -51
-2 -22 26 -207 180 -238 197 -9 5 -33 22 -53 38 l-37 29 -1 214 c0 117 -2 219
-4 226 -20 63 -16 78 14 59z m-70 -302 c0 -243 0 -248 23 -269 45 -42 146
-109 187 -124 54 -19 70 -32 70 -57 0 -42 -31 -31 -98 34 -37 36 -95 85 -130
108 -35 24 -68 54 -73 67 -5 14 -9 127 -9 251 l-1 227 -37 34 -37 33 52 -28
53 -29 0 -247z m-162 248 c80 -59 82 -62 82 -115 0 -35 -4 -51 -15 -55 -30
-11 -47 -73 -40 -147 3 -38 10 -82 15 -99 11 -38 4 -57 -21 -65 -35 -11 -42 3
-34 69 4 33 7 89 6 123 -1 57 2 68 34 114 19 28 35 62 35 75 0 26 -41 73 -87
100 -18 10 -33 22 -33 26 0 14 10 9 58 -26z m-383 -34 l30 -16 -30 -7 c-16 -4
-47 -7 -67 -8 -30 -1 -38 3 -38 17 0 43 39 48 105 14z m145 -39 c1 -27 7 -77
15 -113 19 -86 19 -129 0 -136 -29 -11 -47 16 -40 60 3 23 8 80 11 129 l6 87
-34 1 -33 1 30 8 c17 4 33 8 38 9 4 0 7 -20 7 -46z m1001 -79 c11 -14 10 -18
-6 -30 -11 -8 -31 -12 -45 -10 -14 3 -42 7 -64 11 -42 7 -40 14 7 32 46 17 92
15 108 -3z m-101 -106 c34 -37 18 -88 -28 -88 -43 0 -53 57 -16 94 20 20 19
20 44 -6z m-749 -194 c32 -31 73 -66 92 -78 42 -25 162 -107 249 -171 87 -63
54 -56 -40 8 -73 51 -264 178 -307 204 -11 7 -34 19 -51 27 -37 16 -48 31 -40
51 10 28 40 15 97 -41z m809 -223 c0 -44 -34 -95 -99 -146 -41 -33 -49 -35
-115 -35 -70 0 -73 1 -133 47 -34 26 -60 50 -57 55 3 4 37 -15 77 -42 71 -50
99 -57 154 -42 41 12 133 94 133 117 0 8 5 15 10 15 19 0 10 57 -11 76 -11 10
-26 28 -31 38 -8 14 2 10 31 -13 35 -28 41 -38 41 -70z"/>
<path d="M2760 4338 c-57 -12 -148 -53 -177 -80 -22 -21 -40 -63 -62 -145 -6
-22 -23 -52 -38 -65 -14 -12 -43 -39 -64 -59 l-37 -35 0 -1804 c-1 -1733 0
-1806 18 -1845 34 -75 146 -114 268 -94 37 5 71 14 77 18 5 4 26 14 45 21 33
14 54 27 163 105 47 33 102 53 207 74 30 6 68 18 84 26 15 8 33 15 38 15 20 0
134 83 163 120 18 22 46 82 68 147 27 77 48 121 73 149 39 44 104 173 128 253
9 30 16 81 16 113 0 74 5 84 72 132 61 44 113 107 154 186 29 56 30 65 23 200
-1 19 9 62 21 94 l24 59 -21 86 c-24 105 -23 209 5 284 11 29 28 104 37 166
17 119 22 138 58 211 47 98 16 205 -93 325 -68 76 -69 78 -39 202 18 74 -6
149 -60 192 -22 17 -43 31 -48 31 -5 0 -25 16 -44 36 -34 35 -34 36 -35 127
-1 191 -82 295 -279 357 -60 19 -160 93 -255 189 -119 121 -224 181 -368 210
-60 12 -60 12 -122 -1z m210 -75 c86 -31 141 -80 192 -173 20 -36 50 -82 66
-103 37 -46 101 -99 113 -92 4 3 10 1 13 -4 3 -4 -16 -11 -42 -15 -63 -8 -140
16 -189 61 -98 90 -127 113 -147 113 -12 0 -54 -25 -94 -55 -95 -72 -142 -95
-192 -95 -82 0 -156 119 -129 208 24 82 96 150 186 175 32 10 177 -4 223 -20z
m58 -303 c37 -17 42 -23 42 -53 0 -67 -38 -74 -98 -17 -43 42 -60 47 -93 30
-30 -17 -23 5 12 34 37 31 77 33 137 6z m-461 -34 l27 -24 -27 -50 c-15 -27
-27 -63 -26 -78 0 -27 1 -27 9 -7 9 22 67 59 77 49 4 -3 -10 -21 -29 -39 -45
-43 -58 -67 -59 -114 0 -30 -2 -34 -9 -18 l-9 20 -1 -20 c-2 -17 -3 -16 -10 5
-8 24 -8 24 -9 3 -3 -75 -82 102 -81 182 1 46 39 103 60 90 8 -5 11 -4 6 3 -6
10 10 18 41 21 7 0 24 -10 40 -23z m641 -76 c40 -29 60 -96 42 -139 -36 -88
-139 -137 -198 -95 -13 9 -25 14 -28 12 -8 -8 37 -58 52 -58 8 0 14 -4 14 -10
0 -13 60 -13 116 1 40 10 49 9 92 -13 59 -30 92 -77 92 -131 0 -109 -188 -159
-311 -82 -42 27 -98 96 -129 159 -11 23 -36 61 -55 83 -19 22 -31 44 -27 48 4
5 1 5 -6 1 -8 -5 -21 -1 -31 8 -24 22 -101 31 -145 16 -19 -6 -47 -26 -61 -43
-30 -38 -33 -19 -5 37 30 62 84 100 145 103 42 1 67 -7 150 -46 77 -38 105
-47 125 -41 37 11 65 29 80 53 11 18 9 23 -13 41 -39 32 -51 73 -31 104 14 21
22 24 59 20 23 -3 56 -15 73 -28z m345 1 c55 -24 98 -67 128 -129 25 -52 31
-169 15 -274 -11 -72 6 -143 41 -165 28 -18 45 -8 69 43 26 54 42 53 87 -7 34
-45 34 -66 1 -134 -30 -65 -65 -95 -108 -95 -54 1 -126 80 -151 167 -16 54
-18 56 -27 33 -5 -14 -8 -66 -6 -115 2 -76 8 -100 31 -144 30 -59 34 -93 12
-115 -43 -43 -99 -24 -133 46 -36 72 -33 170 8 273 78 198 83 230 51 301 -28
61 -69 87 -173 109 -15 3 -43 19 -63 36 -29 26 -35 38 -35 72 0 35 6 46 46 85
47 44 47 45 104 39 31 -4 77 -15 103 -26z m-691 2 c25 -23 22 -48 -7 -61 -23
-11 -27 -9 -36 12 -8 17 -8 29 0 45 14 25 19 26 43 4z m-124 -37 c3 -3 -11 -6
-31 -6 -20 0 -38 4 -41 9 -6 9 62 6 72 -3z m294 -9 c22 -34 -10 -97 -49 -97
-49 0 -72 76 -30 105 23 17 66 12 79 -8z m303 -166 c8 -25 -3 -49 -26 -56 -24
-8 -38 1 -50 32 -12 33 -4 43 36 43 24 0 35 -5 40 -19z m-575 -13 c0 -11 -32
-10 -48 1 -9 5 -3 8 17 7 17 -1 31 -4 31 -8z m56 -72 c85 -64 133 -139 159
-252 29 -122 25 -232 -5 -151 -33 89 -59 135 -99 174 -24 24 -48 43 -53 43 -5
0 -43 16 -84 36 -114 56 -141 109 -84 166 27 27 36 30 74 26 30 -4 59 -17 92
-42z m616 -31 c53 -98 62 -304 19 -435 -26 -78 -36 -140 -27 -174 7 -29 62
-96 80 -96 13 -1 56 -35 56 -45 0 -4 19 -28 41 -53 58 -65 92 -142 91 -206 -1
-99 -75 -236 -129 -236 -10 0 -34 8 -53 18 -58 32 -60 85 -4 192 47 91 43 110
-48 230 -44 57 -55 82 -74 165 l-7 30 -13 -30 c-31 -71 -3 -196 61 -266 21
-23 35 -49 35 -65 0 -63 -63 -121 -119 -109 -59 13 -131 125 -131 205 0 56 37
170 85 262 36 70 42 88 25 88 -17 0 -90 -76 -90 -94 0 -10 5 -14 12 -10 7 4 8
3 4 -5 -4 -6 -11 -9 -15 -7 -4 3 -15 -10 -24 -30 -9 -19 -28 -40 -42 -46 -22
-10 -29 -9 -47 9 -19 19 -20 25 -9 52 12 28 103 125 134 143 22 12 111 135
140 194 15 29 33 84 41 123 14 67 14 74 -5 129 -11 31 -24 72 -29 90 -12 48 9
36 42 -23z m-874 20 c-3 -13 -2 -22 2 -20 9 5 24 -12 33 -37 10 -27 -15 -21
-36 8 -12 16 -17 34 -13 50 8 32 20 31 14 -1z m6 -124 c28 -20 78 -47 111 -60
144 -55 189 -85 244 -166 51 -73 49 -130 -5 -194 -33 -38 -35 -39 -72 -29 -58
15 -99 62 -113 127 -15 68 -49 125 -86 146 -64 34 -113 96 -148 186 -28 70
-26 118 2 60 9 -18 39 -50 67 -70z m-46 -136 c69 -62 119 -133 143 -202 40
-113 60 -136 159 -180 l65 -29 -31 -11 c-25 -9 -39 -8 -73 8 l-41 18 0 -22 c0
-12 18 -39 39 -62 26 -26 44 -57 52 -87 12 -43 11 -50 -12 -95 -50 -95 -164
-138 -251 -93 -61 31 -86 57 -119 122 -46 91 -41 132 31 274 45 88 60 128 60
159 0 48 -29 138 -64 201 -14 24 -21 44 -16 44 4 0 31 -20 58 -45z m596 -11
c30 -30 8 -94 -33 -94 -25 0 -63 30 -57 45 2 7 0 17 -6 23 -6 6 -2 15 13 26
30 20 63 20 83 0z m174 -28 c29 -42 22 -81 -19 -101 -40 -21 -56 -19 -85 12
-29 31 -26 63 8 101 32 33 68 29 96 -12z m102 30 c0 -11 -33 -36 -41 -31 -19
12 -9 35 16 35 14 0 25 -2 25 -4z m-750 -58 c0 -12 -6 -9 -26 13 -19 22 -19
22 4 8 12 -8 22 -17 22 -21z m690 -39 c-7 -11 -14 -18 -17 -15 -3 3 0 12 7 21
18 21 23 19 10 -6z m-186 -26 c62 -29 71 -104 17 -150 -49 -43 -122 -19 -141
46 -7 24 -4 37 14 63 17 26 56 57 73 58 1 0 18 -7 37 -17z m566 -65 c6 -18 4
-27 -11 -40 -23 -19 -39 -16 -56 12 -10 15 -10 22 3 35 22 22 53 19 64 -7z
m-712 -26 c2 -7 -2 -10 -12 -6 -9 3 -16 11 -16 16 0 13 23 5 28 -10z m817 2
c26 -10 48 -62 41 -100 -14 -72 -48 -114 -122 -154 -66 -34 -130 -47 -154 -30
-13 9 -13 11 0 19 88 53 130 112 130 182 0 65 49 104 105 83z m153 -76 c7 -7
12 -21 11 -32 0 -17 -2 -16 -11 7 -5 15 -14 25 -19 21 -5 -3 -9 0 -9 5 0 14
13 14 28 -1z m-989 -13 c33 -17 41 -32 31 -60 -13 -36 -37 -49 -65 -37 -32 15
-42 55 -21 87 19 29 19 29 55 10z m301 -25 c0 -5 -5 -10 -11 -10 -5 0 -7 5 -4
10 3 6 8 10 11 10 2 0 4 -4 4 -10z m683 -104 c32 -30 57 -88 57 -133 0 -37
-26 -97 -39 -89 -5 3 -7 -7 -5 -21 1 -15 -2 -36 -8 -47 -13 -24 -22 -10 -32
48 -8 42 -25 75 -65 121 -16 18 -19 24 -7 15 18 -14 19 -13 13 3 -4 10 -7 23
-7 28 0 5 -6 9 -14 9 -11 0 -13 9 -9 38 3 20 11 40 17 44 23 16 73 8 99 -16z
m-865 -51 c48 -33 79 -82 91 -147 12 -66 4 -102 -36 -157 -31 -44 -118 -106
-163 -116 -38 -8 -62 -35 -32 -35 41 0 88 -32 126 -87 37 -53 38 -58 34 -117
-7 -88 -30 -129 -95 -172 -45 -30 -63 -36 -106 -36 -60 1 -94 22 -120 74 -33
66 18 128 106 128 46 0 77 22 76 54 -1 34 -33 80 -70 100 l-35 19 -65 -31
c-88 -40 -102 -59 -154 -210 -3 -7 -9 -11 -13 -8 -13 8 8 143 29 192 21 47 92
124 149 163 51 33 87 89 98 149 9 48 7 71 -13 158 -5 25 -2 37 21 63 15 18 37
37 48 42 30 12 84 1 124 -26z m742 20 c0 -8 -4 -15 -10 -15 -5 0 -10 7 -10 15
0 8 5 15 10 15 6 0 10 -7 10 -15z m-40 -36 c9 -15 8 -24 -1 -35 -15 -18 -49
-18 -49 0 0 8 -3 21 -6 29 -5 14 6 21 38 26 4 0 12 -8 18 -20z m-396 -28 c-5
-3 -12 -10 -15 -14 -4 -4 -9 -1 -13 8 -3 9 -2 13 4 10 6 -3 10 -1 10 5 0 6 5
8 11 4 6 -3 7 -9 3 -13z m35 -42 c13 -18 19 -29 13 -25 -6 3 -13 0 -15 -6 -3
-8 -6 -6 -6 5 -1 9 -5 17 -11 17 -5 0 -6 7 -3 17 4 11 3 14 -5 9 -7 -4 -12 -2
-12 3 0 20 16 11 39 -20z m235 19 c-3 -4 0 -8 5 -8 6 0 11 5 11 10 0 6 31 -5
70 -25 54 -27 74 -44 95 -78 30 -53 31 -67 4 -101 -26 -33 -71 -35 -103 -3
-20 20 -73 160 -68 180 2 5 -2 6 -7 2 -6 -3 -14 3 -20 13 -7 14 -6 19 4 19 8
0 12 -4 9 -9z m-222 -80 c-7 -7 -12 -8 -12 -2 0 6 3 14 7 17 3 4 9 5 12 2 2
-3 -1 -11 -7 -17z m40 -27 c-3 -8 -1 -12 5 -8 6 4 13 -2 16 -13 4 -16 2 -18
-11 -11 -10 5 -21 8 -26 8 -5 -1 -10 8 -11 20 -1 15 3 20 14 16 13 -5 14 -3 4
8 -7 7 -13 17 -13 23 0 5 6 1 14 -9 8 -11 11 -26 8 -34z m9 -58 c13 -16 12
-17 -3 -4 -17 13 -22 21 -14 21 2 0 10 -8 17 -17z m-651 -18 c13 -16 6 -35
-15 -35 -18 0 -26 15 -19 34 8 20 18 20 34 1z m-80 -74 c16 -30 12 -59 -9 -71
-29 -15 -39 -13 -57 15 -25 38 -12 75 26 75 19 0 33 -7 40 -19z m956 -6 c-9
-9 -16 -13 -16 -8 0 12 22 34 28 28 2 -2 -3 -11 -12 -20z m138 -12 c46 -21 70
-71 63 -127 -10 -68 -74 -173 -129 -208 -56 -37 -65 -52 -29 -55 50 -4 126
-35 148 -62 38 -44 27 -119 -25 -173 -14 -16 -34 -28 -43 -28 -21 0 -59 45
-59 70 0 42 -34 112 -67 137 -22 17 -37 23 -41 16 -7 -12 -168 -71 -214 -80
-16 -3 -28 -2 -28 2 0 9 43 44 55 45 6 0 37 25 71 54 76 69 113 144 125 260 5
45 14 92 21 106 29 59 85 75 152 43z m-1258 -8 c43 -18 74 -60 74 -104 0 -61
-66 -165 -99 -154 -13 4 -14 3 -2 -5 13 -9 11 -14 -10 -31 -13 -11 -28 -20
-32 -21 -5 0 -5 -4 -2 -10 3 -5 2 -10 -4 -10 -5 0 -11 6 -14 13 -3 8 -10 7
-26 -7 -16 -15 -18 -22 -9 -27 9 -6 6 -15 -12 -33 -27 -30 -46 -34 -35 -8 14
33 55 197 54 217 -1 17 -2 16 -9 -5 -4 -14 -8 -19 -9 -12 -1 7 -12 30 -26 50
-36 53 -33 93 11 131 29 26 43 31 77 30 23 -1 56 -8 73 -14z m763 -48 c6 -8 8
-16 5 -19 -3 -3 2 -5 12 -4 25 2 76 -89 82 -147 4 -39 -1 -59 -28 -115 -19
-37 -41 -73 -51 -79 -9 -7 -33 -37 -53 -67 -33 -50 -66 -78 -66 -56 0 6 4 10
8 10 4 0 14 21 21 48 8 26 20 60 28 76 8 15 10 25 4 22 -15 -10 -14 4 3 35 8
15 10 32 6 40 -6 9 -12 2 -19 -22 l-11 -34 5 33 c3 19 1 31 -4 27 -5 -3 -12 4
-16 15 -4 11 -18 33 -31 47 -14 15 -22 33 -19 41 3 10 0 12 -10 8 -19 -7 -30
33 -20 72 l8 27 8 -25 c7 -22 8 -21 6 10 -1 28 2 34 15 32 9 -1 20 3 24 9 4 8
3 9 -4 5 -7 -4 -12 -3 -12 3 0 20 93 27 109 8z m-211 -17 c29 -24 26 -46 -11
-74 -21 -16 -32 -18 -45 -10 -17 11 -28 64 -18 90 8 20 47 17 74 -6z m436
-131 c33 -26 33 -59 2 -88 -30 -29 -66 -23 -90 14 -18 27 -13 47 20 79 21 21
36 20 68 -5z m-701 -18 c16 -27 16 -30 -4 -55 -26 -33 -52 -33 -73 -1 -20 31
-20 44 1 67 24 27 56 23 76 -11z m1064 -34 c-2 -7 -11 -13 -20 -15 -13 -3 -16
3 -15 21 2 21 5 24 21 16 10 -6 16 -16 14 -22z m-738 -25 c17 -26 38 -77 48
-113 l17 -66 -25 -49 c-26 -53 -77 -94 -116 -94 -34 0 -73 42 -73 79 0 33 22
61 50 61 21 0 77 61 85 93 3 12 -3 48 -13 80 -11 31 -16 57 -12 57 4 0 22 -22
39 -48z m703 -29 c35 -33 35 -46 1 -73 l-28 -22 -27 31 c-29 32 -29 55 0 79
21 16 22 16 54 -15z m-1302 -28 c0 -25 -23 -35 -35 -15 -3 6 1 7 9 4 11 -4 16
0 16 15 0 12 2 21 5 21 3 0 5 -11 5 -25z m-110 -5 c0 -5 -5 -10 -11 -10 -5 0
-7 5 -4 10 3 6 8 10 11 10 2 0 4 -4 4 -10z m221 0 c23 -13 25 -45 4 -54 -34
-13 -66 24 -44 50 14 17 15 17 40 4z m806 -20 c23 -46 -20 -67 -58 -29 l-22
22 7 -29 c5 -21 4 -25 -4 -14 -15 22 -12 38 11 61 25 25 50 21 66 -11z m-943
-15 c16 -12 18 -20 10 -42 -5 -15 -17 -29 -26 -31 -22 -4 -49 38 -41 66 6 25
29 28 57 7z m-15 -114 c39 -31 71 -84 71 -118 0 -24 -55 -110 -89 -140 -35
-31 -121 -76 -129 -68 -4 4 10 20 31 37 52 42 50 66 -20 157 -21 28 -33 55
-33 75 0 30 21 71 44 89 21 15 86 -1 125 -32z m881 24 c-7 -9 -15 -13 -17 -11
-7 7 7 26 19 26 6 0 6 -6 -2 -15z m260 -52 c0 -5 -10 -19 -23 -31 -23 -22 -24
-22 -41 -3 -14 15 -17 29 -12 55 4 19 12 36 18 38 13 5 58 -43 58 -59z m-902
-17 c40 -21 56 -73 38 -118 -30 -70 -97 -88 -147 -39 -22 23 -29 39 -29 68 1
41 11 59 50 86 30 21 52 21 88 3z m764 -1 c43 -18 98 -78 98 -108 0 -38 -55
-106 -88 -107 -7 0 -41 29 -76 65 -35 36 -70 65 -78 65 -28 0 -88 -65 -107
-114 -16 -44 -19 -47 -26 -27 -4 13 -4 43 0 68 5 35 16 55 51 90 76 76 153 99
226 68z m-532 -35 c26 -26 25 -52 -4 -79 -23 -21 -24 -21 -54 -4 -39 22 -44
64 -10 87 30 21 44 20 68 -4z m-130 -145 c-16 -76 -44 -113 -133 -171 -123
-81 -169 -132 -182 -206 -7 -35 -37 -77 -76 -106 -22 -16 -82 9 -105 43 -37
56 12 119 140 179 78 37 85 43 101 90 8 23 22 35 65 52 82 32 148 104 181 199
l14 40 3 -33 c2 -18 -2 -57 -8 -87z m840 95 c0 -14 -7 -20 -23 -20 -30 0 -40
10 -26 27 18 20 49 16 49 -7z m-508 -50 c-15 -48 -37 -69 -54 -52 -7 7 55 102
67 102 2 0 -4 -22 -13 -50z m-92 6 c0 -8 -7 -19 -15 -26 -12 -10 -18 -10 -30
0 -18 15 -20 47 -2 53 17 6 47 -11 47 -27z m323 -41 c-4 -46 -11 -55 -42 -55
-57 0 -81 60 -40 101 20 20 21 20 52 1 25 -15 32 -25 30 -47z m-802 18 c13
-17 13 -17 -5 -3 -18 14 -19 13 -13 -2 3 -10 2 -18 -3 -18 -11 0 -13 23 -3 33
9 9 9 9 24 -10z m1169 -8 c19 -10 32 -27 39 -50 21 -76 -37 -175 -149 -251
-19 -13 -45 -31 -56 -39 -12 -9 -31 -17 -42 -18 -11 0 -20 -6 -19 -12 1 -5 -3
-9 -10 -8 -7 2 -10 -3 -7 -11 4 -10 0 -13 -14 -9 -14 3 -21 -1 -25 -16 -3 -12
-1 -19 3 -16 5 3 11 1 15 -5 3 -5 -1 -10 -9 -10 -12 0 -16 -10 -16 -39 0 -50
-14 -60 -30 -21 -10 23 -9 40 1 80 12 46 39 89 39 62 0 -6 -4 -14 -10 -17 -5
-3 -10 -14 -10 -23 1 -12 5 -10 15 8 8 14 12 33 9 43 -4 11 6 32 26 55 87 103
101 130 107 204 4 37 9 55 14 46 6 -9 9 -4 9 15 0 17 5 27 15 27 8 0 15 5 15
10 0 15 57 12 90 -5z m-789 -5 c10 -6 26 -24 35 -41 14 -28 14 -33 -1 -56 -20
-30 -29 -25 -16 9 5 14 5 31 1 38 -5 8 -7 17 -4 21 2 4 -11 14 -29 23 -17 8
-26 16 -19 16 7 0 22 -5 33 -10z m-23 -20 c19 -12 32 -28 32 -40 0 -12 -4 -18
-10 -15 -5 3 -10 13 -10 21 0 8 -6 13 -12 12 -7 -2 -12 3 -10 10 1 8 -3 12
-10 9 -7 -2 -12 -10 -10 -16 4 -20 -15 -12 -21 8 -9 36 5 39 51 11z m-359 -14
c17 -20 10 -67 -12 -80 -20 -12 -32 0 -44 43 -4 17 -1 28 12 38 24 17 30 16
44 -1z m318 -82 c8 3 12 2 8 -3 -3 -5 1 -12 7 -14 10 -4 10 -6 1 -6 -22 -2
-53 38 -52 67 1 24 2 22 11 -11 7 -27 15 -37 25 -33z m201 36 c-3 -17 -1 -33
4 -36 4 -3 8 11 8 31 0 24 4 34 11 29 7 -4 9 -21 6 -40 -4 -21 -2 -32 4 -29 5
4 9 0 9 -9 0 -22 49 -76 70 -76 10 0 21 -4 25 -10 3 -5 12 -7 20 -4 10 4 12 0
8 -16 -4 -13 -8 -17 -13 -11 -8 14 -37 4 -44 -15 -3 -8 -2 -13 3 -9 5 3 15
-12 21 -32 7 -21 18 -44 24 -52 6 -8 11 -48 10 -93 -1 -60 -6 -90 -24 -128
-13 -28 -27 -50 -32 -50 -11 0 -10 18 2 25 6 3 10 11 10 16 0 6 -10 -1 -22
-14 -13 -13 -29 -22 -35 -20 -7 3 -14 -4 -14 -14 -1 -16 -2 -16 -6 0 -5 19
-23 24 -23 6 0 -20 -23 -3 -25 19 -1 12 -5 25 -10 29 -4 5 -4 -2 -1 -14 6 -17
4 -22 -7 -18 -22 9 -16 37 22 95 66 102 108 218 70 194 -5 -3 -9 2 -9 10 0 9
-5 16 -11 16 -6 0 -8 7 -5 16 3 9 2 12 -4 9 -11 -7 -81 132 -79 157 0 7 4 4 8
-7 6 -16 10 -10 15 28 4 26 10 47 13 47 3 0 3 -14 1 -30z m-25 0 c-3 -11 -7
-20 -9 -20 -2 0 -4 9 -4 20 0 11 4 20 9 20 5 0 7 -9 4 -20z m396 -22 c10 -16
10 -28 0 -64 -17 -55 -33 -62 -36 -16 -2 37 -22 59 -35 39 -9 -13 -5 24 7 60
6 18 11 20 29 12 12 -6 28 -20 35 -31z m-529 22 c0 -5 -2 -10 -4 -10 -3 0 -8
5 -11 10 -3 6 -1 10 4 10 6 0 11 -4 11 -10z m632 -13 c4 -6 4 -15 2 -19 -8
-12 -24 -10 -21 3 1 6 -4 14 -12 17 -9 3 -11 0 -6 -8 5 -8 4 -11 -3 -6 -19 12
-25 -15 -6 -29 11 -8 14 -15 9 -15 -30 -1 -49 63 -22 73 16 7 50 -3 59 -16z
m-252 6 c-1 -5 -7 -19 -16 -33 l-15 -25 7 25 c6 24 6 24 -10 5 -12 -16 -15
-17 -16 -4 0 8 5 20 12 27 13 13 38 16 38 5z m-820 -55 c43 -12 58 -24 44 -38
-12 -12 -114 34 -114 51 0 7 7 8 18 4 9 -4 33 -12 52 -17z m358 -36 c3 -19
-33 -51 -45 -39 -2 3 5 8 16 12 27 8 24 47 -4 40 -11 -3 -14 -2 -7 1 10 5 10
9 0 22 -12 16 -11 16 12 1 14 -9 26 -26 28 -37z m402 13 c0 -26 -14 -31 -39
-16 -12 8 -12 12 -2 25 20 24 41 19 41 -9z m-483 -7 c-3 -8 -6 -5 -6 6 -1 11
2 17 5 13 3 -3 4 -12 1 -19z m-384 -2 c20 -16 22 -44 3 -68 -29 -39 -99 -2
-77 41 10 18 38 40 51 40 3 0 13 -6 23 -13z m1024 -8 c-3 -8 -6 -5 -6 6 -1 11
2 17 5 13 3 -3 4 -12 1 -19z m-483 -53 c30 -60 43 -127 32 -168 -12 -50 -126
-138 -126 -97 0 6 14 13 30 17 17 3 30 9 30 13 0 9 -31 6 -55 -6 -11 -6 -46
-10 -78 -9 -43 2 -61 7 -72 21 -21 28 -18 61 8 87 12 12 22 26 22 31 0 5 7 11
15 13 13 4 13 3 0 -6 -9 -7 -10 -11 -3 -11 6 0 15 5 18 11 4 6 13 8 21 5 8 -3
14 -1 14 3 0 5 -5 11 -12 13 -7 3 -6 7 5 11 9 3 17 2 17 -3 0 -6 5 -10 11 -10
6 0 9 5 7 12 -3 7 6 23 18 35 13 13 29 41 35 63 7 22 17 39 23 37 6 -2 24 -30
40 -62z m-189 5 c3 -5 1 -18 -5 -27 -9 -16 -10 -15 -5 5 4 13 2 22 -4 22 -6 0
-11 -7 -11 -17 0 -9 -3 -14 -6 -10 -9 8 3 37 15 37 5 0 13 -4 16 -10z m317
-111 l23 -72 -53 -98 c-28 -54 -52 -109 -52 -122 0 -30 34 -67 63 -68 55 -2
71 -7 89 -30 23 -30 18 -97 -9 -116 -10 -8 -26 -20 -36 -28 -23 -20 -77 -18
-102 3 -45 38 -75 122 -75 207 0 54 -27 46 -36 -11 -12 -79 0 -174 30 -231 14
-29 26 -58 26 -64 0 -7 7 -21 17 -31 23 -25 5 -60 -46 -93 -52 -32 -106 -33
-151 -2 -57 38 -74 70 -78 146 -6 100 26 188 103 286 47 60 52 70 24 52 -30
-20 -89 -9 -167 30 -43 21 -59 24 -80 17 -32 -11 -38 -35 -22 -85 12 -36 11
-41 -13 -72 -29 -38 -57 -47 -114 -38 -31 5 -42 14 -66 53 -27 43 -28 50 -17
78 26 63 82 97 203 124 24 6 27 11 27 45 0 45 26 114 40 106 6 -3 10 -15 10
-26 0 -28 28 -90 52 -116 11 -12 37 -27 57 -33 20 -6 45 -15 56 -20 38 -16 65
-18 65 -6 0 7 28 21 63 31 72 22 92 36 119 89 22 44 21 89 -6 171 l-16 50 25
-27 c13 -15 34 -60 47 -99z m372 55 c6 -15 4 -15 -11 -3 -15 12 -16 12 -10 -3
4 -12 2 -15 -9 -11 -11 4 -12 9 -3 19 15 18 25 18 33 -2z m-45 -53 c30 -25 33
-32 27 -63 -7 -39 -41 -64 -72 -54 -61 21 -77 69 -39 114 33 39 41 39 84 3z
m199 -173 c3 -142 -50 -255 -151 -323 -25 -17 -59 -53 -79 -85 -19 -30 -49
-78 -67 -107 -64 -102 -214 -137 -286 -65 -30 30 -32 64 -4 108 27 44 47 54
104 54 62 0 115 30 150 85 39 63 63 81 125 95 57 14 120 62 120 93 0 13 -10
12 -60 -9 -33 -13 -73 -24 -89 -24 -29 0 -62 -26 -107 -87 -22 -28 -22 -28
-43 -9 -29 27 -27 77 4 114 22 26 34 31 93 37 86 9 187 54 210 95 9 17 20 30
25 30 4 0 7 5 7 10 0 21 30 81 38 76 4 -3 9 -42 10 -88z m-283 42 c3 -5 1 -10
-4 -10 -6 0 -11 5 -11 10 0 6 2 10 4 10 3 0 8 -4 11 -10z m-244 -33 c-10 -9
-11 -8 -5 6 3 10 9 15 12 12 3 -3 0 -11 -7 -18z m327 -10 c29 -27 28 -56 -5
-84 -14 -13 -29 -23 -32 -23 -8 0 -61 67 -61 77 0 5 12 21 26 36 26 28 34 28
72 -6z m-94 -66 c8 -13 -20 -45 -32 -37 -9 5 -8 12 1 26 13 22 23 25 31 11z
m-708 -16 c4 -8 0 -22 -7 -31 -12 -14 -14 -13 -21 6 -9 23 -3 40 13 40 5 0 12
-7 15 -15z m88 -56 c-3 -5 1 -6 9 -3 10 4 16 -4 19 -25 3 -21 0 -31 -9 -31 -7
0 -13 6 -13 14 0 7 -8 20 -17 27 -11 10 -14 10 -9 2 4 -8 1 -13 -9 -13 -8 0
-18 7 -21 15 -4 8 -10 12 -15 9 -5 -3 -9 -1 -9 5 0 14 23 19 42 9 14 -7 16 -5
11 9 -6 16 -5 16 10 4 9 -7 14 -17 11 -22z m416 11 c10 -19 10 -20 -9 -8 -22
13 -28 28 -11 28 5 0 14 -9 20 -20z m110 1 c0 -12 -20 -25 -27 -18 -7 7 6 27
18 27 5 0 9 -4 9 -9z m-607 -133 c30 -22 34 -49 12 -88 -20 -35 -18 -80 5
-118 23 -38 24 -42 8 -42 -20 0 -104 81 -122 117 -19 38 -20 72 -4 110 26 57
44 61 101 21z m-162 -134 c21 -47 47 -88 56 -91 10 -4 24 -13 31 -20 7 -7 22
-13 33 -13 10 0 19 -5 19 -11 0 -5 5 -7 10 -4 6 3 10 2 10 -3 0 -6 7 -13 16
-16 8 -3 12 -2 9 4 -3 6 1 7 9 4 14 -6 19 -21 19 -69 0 -36 -4 -46 -23 -65
-11 -11 -26 -20 -32 -20 -7 0 -3 8 9 18 15 11 20 22 14 30 -7 11 -9 10 -15 -3
-3 -9 -10 -14 -15 -11 -11 7 -23 -22 -14 -36 3 -7 1 -8 -5 -4 -7 4 -12 15 -12
24 0 10 -3 13 -8 6 -4 -6 -16 -14 -26 -17 -17 -7 -17 -6 -5 10 10 12 10 14 1
9 -34 -21 -122 48 -114 89 2 9 -2 14 -9 13 -22 -6 -41 73 -34 142 4 36 7 75 8
88 1 12 6 22 10 22 5 0 5 5 1 12 -5 7 -3 8 5 3 7 -4 30 -45 52 -91z m789 82
c0 -2 -7 -7 -16 -10 -8 -3 -12 -2 -9 4 6 10 25 14 25 6z m-35 -32 c12 -12 13
-19 4 -30 -20 -24 -39 -16 -39 16 0 34 11 38 35 14z m-215 -52 c0 -13 -12 -22
-22 -16 -10 6 -1 24 13 24 5 0 9 -4 9 -8z m23 -17 c-3 -9 -8 -14 -10 -11 -3 3
-2 9 2 15 9 16 15 13 8 -4z m346 -153 c-49 -68 -90 -103 -159 -135 -89 -42
-134 -57 -167 -57 -39 0 -167 -47 -225 -82 -29 -17 -71 -48 -93 -68 -22 -20
-62 -46 -88 -59 -106 -51 -245 -7 -276 87 -11 37 -11 45 3 67 38 57 103 72
180 40 36 -15 42 -15 103 5 36 12 75 28 88 36 70 45 236 85 370 89 86 2 178
33 240 80 34 26 43 25 24 -3z m-611 -61 c6 -37 -14 -49 -40 -24 -18 19 -19 24
-8 38 18 22 44 15 48 -14z m-327 -44 c12 -26 -3 -77 -22 -77 -22 0 -69 35 -69
52 0 17 42 47 68 48 7 0 17 -10 23 -23z m294 -7 c3 -5 2 -10 -4 -10 -5 0 -13
5 -16 10 -3 6 -2 10 4 10 5 0 13 -4 16 -10z"/>
<path d="M3160 3440 c-24 -46 -26 -63 -5 -33 17 24 37 73 30 73 -3 0 -14 -18
-25 -40z"/>
<path d="M3906 2852 c-2 -4 4 -8 14 -8 10 0 16 4 14 8 -3 4 -9 8 -14 8 -5 0
-11 -4 -14 -8z"/>
<path d="M2530 2150 c0 -5 7 -7 15 -4 8 4 15 8 15 10 0 2 -7 4 -15 4 -8 0 -15
-4 -15 -10z"/>
<path d="M3271 2277 c-13 -21 -12 -21 5 -5 10 10 16 20 13 22 -3 3 -11 -5 -18
-17z"/>
<path d="M3585 1429 c-4 -6 -5 -12 -2 -15 2 -3 7 2 10 11 7 17 1 20 -8 4z"/>
<path d="M3541 1254 c0 -11 3 -14 6 -6 3 7 2 16 -1 19 -3 4 -6 -2 -5 -13z"/>
<path d="M3336 1227 c3 -10 9 -15 12 -12 3 3 0 11 -7 18 -10 9 -11 8 -5 -6z"/>
<path d="M3532 1640 c0 -14 2 -19 5 -12 2 6 2 18 0 25 -3 6 -5 1 -5 -13z"/>
<path d="M3541 1584 c0 -11 3 -14 6 -6 3 7 2 16 -1 19 -3 4 -6 -2 -5 -13z"/>
<path d="M2800 1325 c0 -8 4 -15 10 -15 5 0 7 7 4 15 -4 8 -8 15 -10 15 -2 0
-4 -7 -4 -15z"/>
<path d="M2500 865 c0 -7 -8 -19 -17 -24 -10 -6 -13 -11 -6 -11 6 0 15 5 18
10 4 6 10 8 15 5 4 -3 6 4 3 15 -6 23 -13 26 -13 5z"/>
<path d="M2560 586 c0 -2 7 -7 16 -10 8 -3 12 -2 9 4 -6 10 -25 14 -25 6z"/>
</g>
</svg>
